<svg xmlns="http://www.w3.org/2000/svg" xmlns:xlink="http://www.w3.org/1999/xlink" width="500" zoomAndPan="magnify" viewBox="0 0 375 374.999991" height="500" preserveAspectRatio="xMidYMid meet" version="1.0"><defs><g/></defs><path stroke-linecap="butt" transform="matrix(0.75, 0, 0, 0.75, 93.553218, 101.07674)" fill="none" stroke-linejoin="miter" d="M 43.991546 85.257061 C 29.611337 85.257061 19.028003 82.298727 12.246752 76.376852 C 6.246752 71.158102 3.241543 64.022685 3.241543 54.970601 C 3.241543 45.913308 6.246752 38.762266 12.246752 33.517474 C 19.028003 27.626849 29.611337 24.678932 43.991546 24.678932 C 52.429047 24.678932 59.403005 25.647682 64.913423 27.579974 C 70.429048 29.512266 74.715506 32.152891 77.76759 35.507058 C 80.824882 38.856016 82.850924 42.694558 83.850924 47.022683 L 58.184255 47.022683 C 55.616547 42.507058 50.88738 40.25185 43.991546 40.25185 C 38.100921 40.25185 33.762379 41.954975 30.97592 45.361225 C 28.762378 48.06435 27.653003 51.267475 27.653003 54.970601 C 27.653003 58.673726 28.762378 61.876851 30.97592 64.579976 C 33.762379 67.986226 38.100921 69.689352 43.991546 69.689352 C 50.88738 69.689352 55.616547 67.418518 58.184255 62.876851 L 83.850924 62.876851 C 82.850924 67.22581 80.824882 71.079977 77.76759 74.428935 C 74.715506 77.783102 70.429048 80.423727 64.913423 82.356019 C 59.403005 84.288311 52.429047 85.257061 43.991546 85.257061 Z M 43.991546 85.257061 " stroke="#a6a6a6" stroke-width="6.22854" stroke-opacity="1" stroke-miterlimit="4"/><g fill="#fb0d45" fill-opacity="1"><g transform="translate(93.553218, 164.076736)"><g><path d="M 33 0.9375 C 22.207031 0.9375 14.269531 -1.28125 9.1875 -5.71875 C 4.6875 -9.632812 2.4375 -14.988281 2.4375 -21.78125 C 2.4375 -28.570312 4.6875 -33.929688 9.1875 -37.859375 C 14.269531 -42.273438 22.207031 -44.484375 33 -44.484375 C 39.320312 -44.484375 44.550781 -43.757812 48.6875 -42.3125 C 52.820312 -40.863281 56.035156 -38.878906 58.328125 -36.359375 C 60.617188 -33.847656 62.140625 -30.972656 62.890625 -27.734375 L 43.640625 -27.734375 C 41.710938 -31.117188 38.164062 -32.8125 33 -32.8125 C 28.570312 -32.8125 25.316406 -31.535156 23.234375 -28.984375 C 21.566406 -26.953125 20.734375 -24.550781 20.734375 -21.78125 C 20.734375 -19 21.566406 -16.59375 23.234375 -14.5625 C 25.316406 -12.007812 28.570312 -10.734375 33 -10.734375 C 38.164062 -10.734375 41.710938 -12.4375 43.640625 -15.84375 L 62.890625 -15.84375 C 62.140625 -12.582031 60.617188 -9.691406 58.328125 -7.171875 C 56.035156 -4.660156 52.820312 -2.679688 48.6875 -1.234375 C 44.550781 0.210938 39.320312 0.9375 33 0.9375 Z M 33 0.9375 "/></g></g></g><path stroke-linecap="butt" transform="matrix(0.75, 0, 0, 0.75, 150.116625, 131.507483)" fill="none" stroke-linejoin="miter" d="M 42.276794 71.000445 L 21.485126 71.000445 L 21.485126 33.69315 L 2.073667 33.69315 L 2.073667 21.432733 L 61.688254 21.432733 L 61.688254 33.69315 L 42.276794 33.69315 Z M 42.276794 71.000445 " stroke="#a6a6a6" stroke-width="5.305657" stroke-opacity="1" stroke-miterlimit="4"/><g fill="#fb0d45" fill-opacity="1"><g transform="translate(150.116625, 184.757479)"><g><path d="M 31.71875 0 L 16.109375 0 L 16.109375 -27.984375 L 1.546875 -27.984375 L 1.546875 -37.1875 L 46.28125 -37.1875 L 46.28125 -27.984375 L 31.71875 -27.984375 Z M 31.71875 0 "/></g></g></g><g fill="#fb0d45" fill-opacity="1"><g transform="translate(158.881343, 145.422948)"><g><path d="M 7.484375 -10.40625 C 7.484375 -8.351562 7.816406 -6.800781 8.484375 -5.75 C 9.160156 -4.695312 10.257812 -4.171875 11.78125 -4.171875 C 13.289062 -4.171875 14.375 -4.691406 15.03125 -5.734375 C 15.695312 -6.785156 16.03125 -8.34375 16.03125 -10.40625 C 16.03125 -12.457031 15.695312 -13.992188 15.03125 -15.015625 C 14.363281 -16.046875 13.269531 -16.5625 11.75 -16.5625 C 10.238281 -16.5625 9.148438 -16.050781 8.484375 -15.03125 C 7.816406 -14.019531 7.484375 -12.476562 7.484375 -10.40625 Z M 21.828125 -10.40625 C 21.828125 -7.03125 20.9375 -4.390625 19.15625 -2.484375 C 17.375 -0.578125 14.890625 0.375 11.703125 0.375 C 9.710938 0.375 7.957031 -0.0625 6.4375 -0.9375 C 4.914062 -1.8125 3.742188 -3.0625 2.921875 -4.6875 C 2.109375 -6.320312 1.703125 -8.226562 1.703125 -10.40625 C 1.703125 -13.800781 2.585938 -16.4375 4.359375 -18.3125 C 6.128906 -20.195312 8.613281 -21.140625 11.8125 -21.140625 C 13.8125 -21.140625 15.570312 -20.703125 17.09375 -19.828125 C 18.613281 -18.960938 19.78125 -17.71875 20.59375 -16.09375 C 21.414062 -14.476562 21.828125 -12.582031 21.828125 -10.40625 Z M 21.828125 -10.40625 "/></g></g></g><g fill="#fb0d45" fill-opacity="1"><g transform="translate(182.403848, 145.422948)"><g><path d="M 2.734375 -26.109375 C 2.734375 -27.953125 3.757812 -28.875 5.8125 -28.875 C 7.863281 -28.875 8.890625 -27.953125 8.890625 -26.109375 C 8.890625 -25.234375 8.628906 -24.550781 8.109375 -24.0625 C 7.597656 -23.570312 6.832031 -23.328125 5.8125 -23.328125 C 3.757812 -23.328125 2.734375 -24.253906 2.734375 -26.109375 Z M 8.625 0 L 2.96875 0 L 2.96875 -20.75 L 8.625 -20.75 Z M 8.625 0 "/></g></g></g><g fill="#fb0d45" fill-opacity="1"><g transform="translate(193.998143, 145.422948)"><g><path d="M 22.125 0 L 16.453125 0 L 16.453125 -12.109375 C 16.453125 -13.609375 16.1875 -14.734375 15.65625 -15.484375 C 15.125 -16.234375 14.28125 -16.609375 13.125 -16.609375 C 11.539062 -16.609375 10.394531 -16.078125 9.6875 -15.015625 C 8.976562 -13.960938 8.625 -12.210938 8.625 -9.765625 L 8.625 0 L 2.96875 0 L 2.96875 -20.75 L 7.296875 -20.75 L 8.046875 -18.09375 L 8.375 -18.09375 C 9 -19.09375 9.863281 -19.847656 10.96875 -20.359375 C 12.082031 -20.878906 13.34375 -21.140625 14.75 -21.140625 C 17.164062 -21.140625 19 -20.484375 20.25 -19.171875 C 21.5 -17.867188 22.125 -15.988281 22.125 -13.53125 Z M 22.125 0 "/></g></g></g><g fill="#fb0d45" fill-opacity="1"><g transform="translate(180.888187, 186.705105)"><g><path d="M 14.546875 -21.140625 C 15.316406 -21.140625 15.953125 -21.082031 16.453125 -20.96875 L 16.03125 -15.65625 C 15.570312 -15.78125 15.015625 -15.84375 14.359375 -15.84375 C 12.554688 -15.84375 11.148438 -15.378906 10.140625 -14.453125 C 9.128906 -13.523438 8.625 -12.226562 8.625 -10.5625 L 8.625 0 L 2.96875 0 L 2.96875 -20.75 L 7.25 -20.75 L 8.09375 -17.25 L 8.375 -17.25 C 9.007812 -18.414062 9.875 -19.351562 10.96875 -20.0625 C 12.070312 -20.78125 13.265625 -21.140625 14.546875 -21.140625 Z M 14.546875 -21.140625 "/></g></g></g><g fill="#fb0d45" fill-opacity="1"><g transform="translate(198.140497, 186.705105)"><g><path d="M 16.140625 0 L 15.046875 -2.828125 L 14.90625 -2.828125 C 13.945312 -1.617188 12.960938 -0.78125 11.953125 -0.3125 C 10.953125 0.144531 9.640625 0.375 8.015625 0.375 C 6.023438 0.375 4.457031 -0.191406 3.3125 -1.328125 C 2.164062 -2.472656 1.59375 -4.097656 1.59375 -6.203125 C 1.59375 -8.398438 2.363281 -10.019531 3.90625 -11.0625 C 5.445312 -12.113281 7.769531 -12.691406 10.875 -12.796875 L 14.46875 -12.921875 L 14.46875 -13.828125 C 14.46875 -15.929688 13.394531 -16.984375 11.25 -16.984375 C 9.59375 -16.984375 7.644531 -16.476562 5.40625 -15.46875 L 3.53125 -19.296875 C 5.914062 -20.546875 8.5625 -21.171875 11.46875 -21.171875 C 14.25 -21.171875 16.378906 -20.5625 17.859375 -19.34375 C 19.347656 -18.132812 20.09375 -16.296875 20.09375 -13.828125 L 20.09375 0 Z M 14.46875 -9.609375 L 12.28125 -9.53125 C 10.632812 -9.488281 9.410156 -9.191406 8.609375 -8.640625 C 7.804688 -8.097656 7.40625 -7.269531 7.40625 -6.15625 C 7.40625 -4.5625 8.320312 -3.765625 10.15625 -3.765625 C 11.457031 -3.765625 12.5 -4.140625 13.28125 -4.890625 C 14.070312 -5.648438 14.46875 -6.65625 14.46875 -7.90625 Z M 14.46875 -9.609375 "/></g></g></g><g fill="#fb0d45" fill-opacity="1"><g transform="translate(221.087926, 186.705105)"><g><path d="M 11.390625 0.375 C 4.929688 0.375 1.703125 -3.171875 1.703125 -10.265625 C 1.703125 -13.785156 2.582031 -16.476562 4.34375 -18.34375 C 6.101562 -20.207031 8.617188 -21.140625 11.890625 -21.140625 C 14.296875 -21.140625 16.445312 -20.664062 18.34375 -19.71875 L 16.6875 -15.34375 C 15.789062 -15.707031 14.957031 -16 14.1875 -16.21875 C 13.425781 -16.445312 12.660156 -16.5625 11.890625 -16.5625 C 8.953125 -16.5625 7.484375 -14.472656 7.484375 -10.296875 C 7.484375 -6.242188 8.953125 -4.21875 11.890625 -4.21875 C 12.984375 -4.21875 13.992188 -4.359375 14.921875 -4.640625 C 15.847656 -4.929688 16.773438 -5.390625 17.703125 -6.015625 L 17.703125 -1.171875 C 16.785156 -0.585938 15.859375 -0.1875 14.921875 0.03125 C 13.992188 0.257812 12.816406 0.375 11.390625 0.375 Z M 11.390625 0.375 "/></g></g></g><g fill="#fb0d45" fill-opacity="1"><g transform="translate(240.621993, 186.705105)"><g><path d="M 8.40625 -11.28125 L 10.875 -14.4375 L 16.6875 -20.75 L 23.0625 -20.75 L 14.828125 -11.75 L 23.5625 0 L 17.03125 0 L 11.0625 -8.40625 L 8.625 -6.453125 L 8.625 0 L 2.96875 0 L 2.96875 -28.875 L 8.625 -28.875 L 8.625 -16 L 8.328125 -11.28125 Z M 8.40625 -11.28125 "/></g></g></g><g fill="#fb0d45" fill-opacity="1"><g transform="translate(264.1816, 186.705105)"><g><path d="M 14.546875 -21.140625 C 15.316406 -21.140625 15.953125 -21.082031 16.453125 -20.96875 L 16.03125 -15.65625 C 15.570312 -15.78125 15.015625 -15.84375 14.359375 -15.84375 C 12.554688 -15.84375 11.148438 -15.378906 10.140625 -14.453125 C 9.128906 -13.523438 8.625 -12.226562 8.625 -10.5625 L 8.625 0 L 2.96875 0 L 2.96875 -20.75 L 7.25 -20.75 L 8.09375 -17.25 L 8.375 -17.25 C 9.007812 -18.414062 9.875 -19.351562 10.96875 -20.0625 C 12.070312 -20.78125 13.265625 -21.140625 14.546875 -21.140625 Z M 14.546875 -21.140625 "/></g></g></g><path stroke-linecap="butt" transform="matrix(0.75, 0, 0, 0.75, 136.022955, 145.026744)" fill="none" stroke-linejoin="miter" d="M 0.000643643 1.5008 L 185.646489 1.5008 " stroke="#a6a6a6" stroke-width="3" stroke-opacity="1" stroke-miterlimit="4"/><path stroke-linecap="round" transform="matrix(0.75, 0, 0, 0.75, 136.022955, 145.026744)" fill-opacity="1" fill="#a6a6a6" fill-rule="nonzero" stroke-linejoin="round" d="M 186.396489 -2.999201 L 192.39649 1.5008 L 186.396489 6.0008 Z M 186.396489 -2.999201 " stroke="#a6a6a6" stroke-width="3" stroke-opacity="1" stroke-miterlimit="4"/></svg>